<?xml version="1.0" encoding="UTF-8" standalone="no"?>
<!DOCTYPE svg PUBLIC "-//W3C//DTD SVG 1.1//EN" "http://www.w3.org/Graphics/SVG/1.1/DTD/svg11.dtd">
<svg width="100%" height="100%" viewBox="0 0 82 58" version="1.1" xmlns="http://www.w3.org/2000/svg" xmlns:xlink="http://www.w3.org/1999/xlink" xml:space="preserve" xmlns:serif="http://www.serif.com/" style="fill-rule:evenodd;clip-rule:evenodd;stroke-linejoin:round;stroke-miterlimit:2;">
    <g transform="matrix(0.984984,0,0,0.956678,-1.75823,-2.07931)">
        <rect id="Artboard1" x="1.785" y="2.173" width="82.462" height="60.327" style="fill:none;"/>
        <g id="Artboard11" serif:id="Artboard1">
            <g transform="matrix(1.01524,0,0,1.04528,-7.57448,-20.0091)">
                <path d="M18.36,21.395L81.64,21.395C86.24,21.395 89.996,25.151 89.996,29.751L89.996,70.25C89.996,74.85 86.24,78.605 81.64,78.605L18.36,78.605C13.76,78.605 10.004,74.85 10.004,70.25L10.004,29.751C10.004,27.451 10.943,25.362 12.457,23.848L12.461,23.852C13.978,22.336 16.067,21.395 18.36,21.395ZM82.357,74.494L56.341,52.633C52.687,55.672 47.311,55.673 43.658,52.633L17.643,74.494C18.411,74.625 81.589,74.625 82.357,74.494ZM59.475,50L85.593,71.948C85.82,71.426 85.946,70.851 85.946,70.249L85.946,29.751C85.946,29.149 85.82,28.574 85.593,28.052L59.475,50ZM14.407,71.948L40.525,50L14.407,28.051C14.18,28.573 14.054,29.148 14.054,29.75L14.054,70.249C14.054,70.852 14.18,71.426 14.407,71.948ZM17.642,25.505L46.216,49.517C48.352,51.312 51.648,51.312 53.784,49.517L82.357,25.506L17.642,25.505Z"/>
            </g>
        </g>
    </g>
</svg>
